<?xml version="1.0" encoding="UTF-8" standalone="no"?>
<svg
   xmlns:dc="http://purl.org/dc/elements/1.1/"
   xmlns:cc="http://creativecommons.org/ns#"
   xmlns:rdf="http://www.w3.org/1999/02/22-rdf-syntax-ns#"
   xmlns:svg="http://www.w3.org/2000/svg"
   xmlns="http://www.w3.org/2000/svg"
   xmlns:sodipodi="http://sodipodi.sourceforge.net/DTD/sodipodi-0.dtd"
   xmlns:inkscape="http://www.inkscape.org/namespaces/inkscape"
   version="1.1"
   id="svg2"
   width="680"
   height="400"
   viewBox="0 0 680 400"
   sodipodi:docname="logo.svg"
   inkscape:version="1.0.1 (3bc2e813f5, 2020-09-07)">
  <metadata
     id="metadata8">
    <rdf:RDF>
      <cc:Work
         rdf:about="">
        <dc:format>image/svg+xml</dc:format>
        <dc:type
           rdf:resource="http://purl.org/dc/dcmitype/StillImage" />
        <dc:title></dc:title>
      </cc:Work>
    </rdf:RDF>
  </metadata>
  <defs
     id="defs6" />
  <sodipodi:namedview
     pagecolor="#ffffff"
     bordercolor="#666666"
     borderopacity="1"
     objecttolerance="10"
     gridtolerance="10"
     guidetolerance="10"
     inkscape:pageopacity="0"
     inkscape:pageshadow="2"
     inkscape:window-width="1366"
     inkscape:window-height="705"
     id="namedview4"
     showgrid="false"
     inkscape:pagecheckerboard="true"
     inkscape:zoom="0.44698886"
     inkscape:cx="324.77457"
     inkscape:cy="377.34449"
     inkscape:window-x="-8"
     inkscape:window-y="-8"
     inkscape:window-maximized="1"
     inkscape:current-layer="g10" />
  <g
     inkscape:groupmode="layer"
     inkscape:label="Image"
     id="g10">
    <path
       id="rect16"
       style="fill:#4dda8d;fill-opacity:1;fill-rule:evenodd"
       d="m 15.177509,22.426146 c -1.269759,0 -1.476409,0.59685 -0.943359,2.72071 0.375379,1.49563 2.291102,5.43313 4.257812,8.75 1.96671,3.31688 5.555226,9.02809 7.972656,12.6914 2.41744,3.66331 7.86201,9.96772 12.09961,14.01172 4.2376,4.044 10.930817,9.49594 14.873047,12.11328 3.94224,2.61734 11.81724,6.96454 17.5,9.66211 5.682771,2.69758 15.057031,6.5437 20.832031,8.54688 5.775,2.00318 23.324994,7.48696 38.999994,12.185544 15.675,4.69858 30.525,9.13689 33,9.86329 2.475,0.7264 5.52649,1.35154 6.78125,1.38867 1.25477,0.0371 2.52419,-0.56426 2.82031,-1.33594 0.29612,-0.77167 -0.37227,-3.18731 -1.48437,-5.36719 -1.11209,-2.17988 -3.27409,-5.45051 -4.80469,-7.26953 -1.5306,-1.819014 -5.40304,-5.000484 -8.60547,-7.070314 -3.20244,-2.06984 -9.28486,-4.8997 -13.51562,-6.28711 -4.23075,-1.38741 -13.09141,-3.8678 -19.69141,-5.51367 -6.6,-1.64587 -16.275,-4.54516 -21.49999,-6.44141 -5.225004,-1.89624 -14.000004,-5.26298 -19.500004,-7.48242 -5.5,-2.21945 -13.0375,-5.67056 -16.75,-7.66797 -3.7125,-1.99742 -6.75,-4.05124 -6.75,-4.56445 0,-0.51321 0.202222,-0.9336 0.451172,-0.9336 0.24894,0 11.161439,3.77166 24.25,8.38086 13.08855,4.60919 29.543512,10.24272 36.566402,12.51953 7.0229,2.27681 17.22726,5.21978 22.67578,6.53907 5.44852,1.31929 12.41438,2.71262 15.48047,3.0957 3.68285,0.46014 5.57617,0.33739 5.57617,-0.35938 0,-0.58009 -3.9375,-2.23843 -8.75,-3.68554 -4.8125,-1.4471 -18.65,-5.94046 -30.75,-9.98633 -12.1,-4.04587 -25.37498,-8.67952 -29.499994,-10.29688 -4.125,-1.61735 -11.1,-4.39185 -15.5,-6.16601 -4.4,-1.77415 -16.645688,-7.42065 -27.210938,-12.54688 -10.56525,-5.12622 -23.269722,-11.60867 -28.232422,-14.40625 -4.96271,-2.79757 -9.754267,-5.08789 -10.648437,-5.08789 z m 653.019531,0.37305 c -1.12278,-0.0473 -5.04252,1.63613 -9.08594,3.92773 -4.31298,2.44438 -13.6918,7.37423 -20.8418,10.95313 -7.15,3.5789 -19.86257,9.47634 -28.25,13.10742 -8.38744,3.63108 -23.01244,9.47928 -32.5,12.99414 -9.48757,3.51484 -21.525,7.77201 -26.75,9.46094 -5.225,1.68894 -14.7875,4.69669 -21.25,6.68359 -6.4625,1.9869 -11.75,4.08907 -11.75,4.67188 0,0.70278 1.87698,0.82522 5.57422,0.36328 3.06609,-0.38308 10.15359,-1.80508 15.75,-3.16016 5.5964,-1.35508 19.17578,-5.42488 30.17578,-9.04297 11,-3.61808 26.6491,-8.99795 34.77735,-11.95507 8.12824,-2.95714 15.55324,-5.36124 16.5,-5.34375 1.51654,0.028 1.48467,0.22078 -0.27735,1.62304 -1.1,0.8754 -6.5,3.73638 -12,6.35742 -5.5,2.62104 -16.075,7.01004 -23.5,9.75391 -7.425,2.74388 -19.125,6.41904 -26,8.16602 -6.875,1.74699 -15.96261,4.3038 -20.19336,5.68359 -4.23076,1.37979 -10.31123,4.2036 -13.51367,6.27344 -3.20243,2.06983 -7.07487,5.2513 -8.60547,7.070314 -1.5306,1.81902 -3.69455,5.08964 -4.80664,7.26953 -1.1121,2.17987 -1.75917,4.64534 -1.43945,5.47852 0.4567,1.19014 1.54475,1.37165 5.07812,0.84179 2.47358,-0.37093 7.75569,-1.78799 11.73828,-3.14843 3.98258,-1.36044 17.14219,-5.35865 29.24219,-8.88477 12.1,-3.526114 27.32842,-8.251424 33.8418,-10.500004 6.51338,-2.24859 16.15501,-6.10336 21.42578,-8.56641 5.27077,-2.46304 13.9402,-7.37855 19.26562,-10.92382 5.9263,-3.9453 12.66367,-9.61536 17.36719,-14.61524 4.39138,-4.66807 10.03852,-12.16739 13.17578,-17.49804 3.01954,-5.13064 6.15917,-10.9316 6.97852,-12.89258 1.28625,-3.07843 1.29425,-3.6411 0.0586,-4.11524 -0.0492,-0.0189 -0.11069,-0.03 -0.18554,-0.0332 z M 353.8904,75.426146 c -1.4724,0 -3.67607,0.70242 -4.89844,1.5586 -1.22238,0.85619 -2.22266,2.09816 -2.22266,2.76172 0,0.66355 2.475,3.13939 5.5,5.50195 3.025,2.36255 5.5,4.67303 5.5,5.13281 0,0.45978 -1.6875,0.44378 -3.75,-0.0352 -2.0625,-0.47897 -5.55,-0.87876 -7.75,-0.88672 -2.63872,-0.01 -5.78668,1.01185 -9.25,2.99804 -2.8875,1.65597 -5.25,3.61437 -5.25,4.35352 0,0.73915 2.1375,2.14959 4.75,3.13281 2.6125,0.983224 8.4625,3.489344 13,5.570314 7.69574,3.52939 8.25,3.98896 8.25,6.82618 0,2.06417 -0.73505,3.52143 -2.28515,4.5371 -1.25624,0.82312 -3.39374,1.62138 -4.75,1.77344 -2.11862,0.23753 -2.50896,-0.17985 -2.77735,-2.96094 -0.18581,-1.92535 -1.18783,-3.85007 -2.47265,-4.75 -1.19658,-0.83808 -4.29105,-1.51367 -6.9375,-1.51367 -2.62762,0 -4.77735,0.37814 -4.77735,0.83985 0,0.46172 1.15062,1.36328 2.55664,2.0039 1.40601,0.64062 2.27793,1.61445 1.93946,2.16211 -0.33847,0.54766 -2.35317,0.99414 -4.47852,0.99414 -2.71501,0 -4.7955,-0.78277 -6.99414,-2.63281 -2.69307,-2.26606 -3.08657,-3.19272 -2.82617,-6.64844 0.16923,-2.24588 -0.17477,-4.18098 -0.7793,-4.39258 -0.59448,-0.20808 -2.33174,0.60542 -3.86133,1.8086 -2.47006,1.94295 -2.72558,2.67823 -2.28711,6.56836 0.27153,2.40897 1.30356,5.27566 2.29493,6.37109 0.99135,1.09543 3.22024,2.86577 4.95117,3.93555 1.73094,1.06977 5.5842,2.63058 8.56445,3.4668 3.42908,0.96215 7.88521,1.35851 12.13672,1.08203 3.69503,-0.2403 8.67692,-1.30262 11.07031,-2.36133 2.3934,-1.05872 6.03329,-3.65594 8.08789,-5.77149 2.05459,-2.11555 5.31751,-6.44964 7.25,-9.63085 2.17963,-3.58807 3.29106,-6.4842 2.92774,-7.628914 -0.32212,-1.01493 -1.59193,-2.35767 -2.82032,-2.98438 -1.22839,-0.62671 -3.58242,-1.63044 -5.23242,-2.23047 -2.46494,-0.89637 -2.71603,-1.24941 -1.40625,-1.98242 0.96268,-0.53875 3.12453,-0.47075 5.45899,0.17383 2.12611,0.58704 5.68411,2.54719 7.90625,4.35547 2.35284,1.91464 6.95554,4.156664 11.01953,5.367194 3.96587,1.1813 7.35439,1.70225 7.84961,1.20703 0.49521,-0.49521 0.17603,-3.26113 -0.73828,-6.406254 -0.962,-3.30916 -2.59119,-6.30738 -4.05274,-7.45703 -1.52125,-1.19662 -4.86632,-2.17118 -8.85742,-2.58008 -3.52708,-0.36136 -8.61073,-1.31212 -11.29688,-2.11328 -2.68616,-0.80115 -7.29164,-3.27025 -10.23437,-5.48633 -3.14693,-2.36985 -6.45278,-4.0293 -8.02734,-4.0293 z m -316.044922,3 c -0.52709,0 -1.21949,0.42163 -1.53711,0.93555 -0.31761,0.51391 1.956135,5.12641 5.052735,10.25 3.09659,5.12358 7.858901,12.334534 10.582031,16.023444 2.72314,3.68891 7.452856,8.9913 10.509766,11.78515 3.05692,2.79385 6.882783,5.76621 8.501953,6.60352 1.61918,0.83731 9.742744,3.08243 18.052734,4.99023 8.30999,1.90781 21.668683,4.55908 29.685543,5.89258 8.01684,1.33349 19.07617,2.89628 24.57617,3.4707 5.5,0.57444 11.575,1.19805 13.5,1.38672 1.925,0.18867 5.8625,0.41589 8.75,0.50391 4.73094,0.14422 5.25,-0.0507 5.25,-1.95898 0,-1.1647 -1.69969,-3.81688 -3.77734,-5.89454 -2.4811,-2.4811 -5.63232,-4.32877 -9.18164,-5.38281 -3.00753,-0.89314 -8.9822,-1.60471 -13.47266,-1.60547 -4.43768,-7.5e-4 -11.66836,-0.63815 -16.06836,-1.41601 -4.4,-0.77786 -12.78402,-2.75049 -18.63086,-4.38282 -5.84684,-1.63231 -11.471833,-3.49855 -12.499994,-4.14843 -1.5438,-0.97581 -1.08542,-1.08461 2.63086,-0.625 2.475004,0.3061 10.799994,1.66509 18.499994,3.01953 7.7,1.35445 21.29922,3.24517 30.2207,4.20312 8.9215,0.95795 16.54368,1.41921 16.93946,1.02344 0.39577,-0.39578 0.0342,-1.40717 -0.80469,-2.24609 -0.83892,-0.83892 -5.31307,-2.23383 -9.94141,-3.09961 -4.62834,-0.86578 -18.31406,-3.96094 -30.41406,-6.87891 -12.1,-2.91796 -27.624994,-7.1962 -34.499994,-9.50586 -6.875,-2.309674 -17.225,-6.209264 -23,-8.666014 -5.775,-2.45675 -14.429462,-6.67328 -19.232422,-9.3711 -4.80296,-2.69782 -9.164326,-4.90625 -9.691406,-4.90625 z m 608.749992,0.49219 c -1.37967,0.13457 -9.15219,3.5375 -18.05664,7.92774 -9.70337,4.78414 -23.84121,10.74987 -32.26953,13.615234 -8.25,2.80473 -24.9,7.50175 -37,10.4375 -12.1,2.93575 -24.025,5.63528 -26.5,6 -2.475,0.36471 -6.8625,1.31988 -9.75,2.12305 -3.29438,0.91635 -5.25,2.00987 -5.25,2.93359 0,0.9741 1.03008,1.4707 3.04688,1.4707 1.6763,0 9.2138,-0.70615 16.75,-1.57031 7.5362,-0.86415 20.22812,-2.70494 28.20312,-4.08984 7.975,-1.3849 16.3,-2.73 18.5,-2.99024 2.9668,-0.35094 3.58847,-0.209 2.41016,0.54883 -0.87377,0.56196 -6.4122,2.41537 -12.3086,4.11914 -5.89639,1.70377 -14.40727,3.74625 -18.9121,4.53906 -4.50483,0.7928 -11.82014,1.44261 -16.25782,1.44336 -4.43767,7.5e-4 -10.37937,0.68683 -13.20312,1.52539 -2.82374,0.83856 -6.52096,2.69219 -8.2168,4.11914 -1.69583,1.42696 -3.7245,3.83291 -4.50781,5.34766 -0.78331,1.51476 -1.10541,3.08478 -0.71485,3.48828 0.39057,0.40349 4.98594,0.44029 10.21094,0.082 5.225,-0.35823 13.55,-1.10923 18.5,-1.66992 4.95,-0.56069 15.6919,-2.13435 23.8711,-3.49609 8.17921,-1.36175 21.53792,-4.00643 29.68554,-5.87696 8.14763,-1.87053 16.16329,-4.09833 17.8125,-4.95117 1.64921,-0.85284 5.77557,-4.1232 9.17188,-7.26758 3.7775,-3.4973 9.38492,-10.58576 14.43945,-18.257814 4.54447,-6.89786 8.99305,-13.98004 9.88672,-15.73633 0.9925,-1.95052 1.24527,-3.428 0.64844,-3.79687 -0.0336,-0.0208 -0.0975,-0.0265 -0.18946,-0.0176 z m -338.11328,0.93359 c -1.57305,0.0745 -2.17197,0.59645 -3.27929,1.63672 -1.23638,1.16152 -3.59238,4.66072 -5.23438,7.77539 -1.64201,3.11466 -3.30135,7.15706 -3.6875,8.98243 -0.38615,1.825374 -0.38857,6.437874 -0.006,10.250004 0.38284,3.81213 0.98902,6.91476 1.3457,6.89648 0.35668,-0.0183 2.22344,-3.27062 4.14844,-7.22852 2.39164,-4.91734 4.60331,-7.93458 6.98633,-9.527344 2.89562,-1.93538 4.59247,-2.29037 10,-2.08984 l 6.51367,0.24218 0.30664,-3.64062 c 0.22193,-2.62377 1.17958,-4.37362 3.42578,-6.26367 2.50085,-2.10433 2.83476,-2.80178 1.69141,-3.52539 -0.7838,-0.49605 -1.76552,-0.90955 -2.18164,-0.91797 -0.41612,-0.008 -5.32433,-0.70038 -10.9082,-1.53906 -5.00096,-0.75114 -7.54806,-1.12525 -9.1211,-1.05079 z m -134.90039,6.66602 c -0.26542,-0.005 -0.44997,0.0409 -0.5625,0.13281 -0.6875,0.56161 -1.25,2.01103 -1.25,3.22071 0,1.20967 0.72211,4.3196 1.60547,6.91211 0.92938,2.72757 3.73248,7.041534 6.65234,10.236324 2.77527,3.03658 7.01987,6.87777 9.43165,8.53711 2.41177,1.65935 8.08055,5.00239 12.59765,7.42774 4.5171,2.42535 8.95183,4.41659 9.85547,4.42578 0.90367,0.009 1.86685,-0.56778 2.14062,-1.28125 0.27378,-0.71346 -0.0999,-3.07596 -0.83007,-5.25 -0.88652,-2.63934 -3.59142,-6.06667 -8.14063,-10.31446 -6.26487,-5.84977 -6.5711,-6.31971 -3.8125,-5.84374 1.65,0.28468 4.6875,0.84348 6.75,1.24218 2.87567,0.55589 3.74614,0.40265 3.73438,-0.65625 -0.009,-0.79354 -7.9836,-5.27175 -18.75,-10.529294 -11.80594,-5.76518 -17.564,-8.22706 -19.42188,-8.25977 z m 336.36524,0 c -1.89285,0.0482 -7.80941,2.59878 -20.04297,8.5918 -14.15722,6.935394 -19.06897,9.784554 -18.25977,10.593754 0.8092,0.8092 2.47095,0.75616 6.17578,-0.19336 2.7873,-0.71436 5.37674,-0.98851 5.75586,-0.60938 0.37913,0.37913 -0.20946,1.34579 -1.30859,2.14649 -1.09914,0.80071 -3.7591,3.11965 -5.91016,5.15429 -2.15107,2.03463 -4.77323,5.65039 -5.82812,8.03516 -1.0549,2.38476 -1.67231,4.97874 -1.3711,5.76367 0.3012,0.78492 1.24949,1.42578 2.10743,1.42578 0.85795,0 4.35943,-1.401 7.78125,-3.11523 3.42181,-1.71422 9.19402,-5.08088 12.82617,-7.48047 3.63214,-2.39959 8.50248,-6.42083 10.82226,-8.9375 2.31978,-2.51667 5.30457,-6.91447 6.63477,-9.771484 1.33021,-2.85702 2.42432,-6.37711 2.42969,-7.82227 0.005,-1.44515 -0.55274,-3.08862 -1.24024,-3.65234 -0.11281,-0.0925 -0.30185,-0.1358 -0.57226,-0.12891 z m -222.22852,5.9082 c -2.22731,0 -5.32369,0.65961 -6.88086,1.46485 -1.55718,0.80525 -4.00871,2.86421 -5.44922,4.57617 -1.80831,2.149044 -2.61914,4.275494 -2.61914,6.869144 0,2.06613 0.29935,4.05717 0.66602,4.42383 0.36666,0.36667 1.28028,0.66601 2.02929,0.66601 0.74902,0 4.08023,-1.37279 7.4043,-3.05078 4.61181,-2.32803 6.38322,-3.85939 7.47266,-6.46679 0.78524,-1.879354 1.42773,-4.556564 1.42773,-5.949224 0,-2.29265 -0.38411,-2.53321 -4.05078,-2.53321 z m -60.00391,10.000004 c -1.04512,0 -2.64591,1.14029 -3.55859,2.53321 -0.91268,1.39292 -1.66016,4.20703 -1.66016,6.2539 0,2.28355 1.37171,6.42616 3.55079,10.71875 1.95322,3.8477 5.85907,10.80898 8.67773,15.47071 2.81869,4.66173 6.06813,11.63673 7.22266,15.5 1.15454,3.86327 2.2885,7.36093 2.51953,7.77343 0.23102,0.4125 0.85556,0.75 1.38672,0.75 0.53115,0 1.42608,-1.21344 1.99023,-2.69726 0.74958,-1.97157 0.60962,-4.75769 -0.52344,-10.34961 -0.85277,-4.20855 -1.55078,-9.11748 -1.55078,-10.9082 0,-1.79073 -0.71593,-6.02101 -1.58984,-9.4004 -0.8739,-3.37938 -3.04558,-9.29996 -4.82617,-13.1582 -1.80377,-3.90849 -4.6773,-8.22616 -6.48829,-9.75 -1.7877,-1.50426 -4.10527,-2.73633 -5.15039,-2.73633 z m 227.63477,0.1543 c -1.44306,0.0932 -3.16333,1.21082 -5.44922,3.52148 -2.32291,2.34807 -5.04395,6.8709 -7.04492,11.71289 -1.79281,4.33832 -3.6904,10.63831 -4.2168,14 -0.52641,3.3617 -1.64353,10.18529 -2.48242,15.16407 -0.83888,4.97879 -1.22005,10.26629 -0.84766,11.75 0.37238,1.48372 1.31698,2.69726 2.09961,2.69726 0.78264,0 1.60414,-0.5625 1.82422,-1.25 0.22008,-0.6875 1.09179,-3.725 1.9375,-6.75 0.84571,-3.025 3.63911,-9.1 6.20899,-13.5 2.56988,-4.4 6.63418,-11.72908 9.03125,-16.28906 2.89558,-5.5083 4.35354,-9.53573 4.34375,-12 -0.008,-2.04002 -0.58223,-4.83594 -1.27539,-6.21094 -0.69316,-1.375 -2.28022,-2.64541 -3.52735,-2.82422 -0.19568,-0.0281 -0.3954,-0.0348 -0.60156,-0.0215 z m -71.62891,4.8457 c -0.32112,0 -1.60088,2.45449 -2.84375,5.45313 -1.28821,3.10803 -3.91655,6.94897 -6.11328,8.93359 -2.11942,1.91477 -5.5724,3.95943 -7.67383,4.54297 -2.10143,0.58353 -4.4113,1.06335 -5.13281,1.06641 -0.7215,0.003 -5.43268,1.18983 -10.46875,2.63867 -7.91963,2.27841 -10.30826,2.55263 -17.6875,2.02539 -4.69243,-0.33527 -10.83267,-1.2954 -13.64453,-2.13281 -2.81186,-0.8374 -6.2446,-2.41306 -7.62891,-3.50196 -1.38431,-1.0889 -3.50306,-4.07901 -4.70898,-6.64453 -1.86713,-3.97215 -2.39789,-4.45709 -3.56836,-3.27148 -0.75597,0.76575 -1.92462,3.46594 -2.59766,6.00195 -1.08918,4.10402 -1.00472,5.03172 0.76172,8.43555 1.39728,2.69251 3.59294,4.68763 7.41993,6.74023 2.98957,1.60346 6.16767,3.56373 7.0625,4.35742 0.89483,0.79368 1.84947,3.5619 2.12109,6.1504 0.27162,2.5885 0.66451,5.38007 0.87305,6.20507 0.29927,1.18389 -0.6748,1.5 -4.6211,1.5 -4.43523,0 -5.03679,0.25634 -5.32226,2.26758 -0.17701,1.24705 0.21521,3.89352 0.87109,5.88086 0.65588,1.98735 2.82615,5.42459 4.82227,7.63867 1.99612,2.21407 5.4289,4.8768 7.6289,5.91602 3.2456,1.53314 5.6031,1.80578 12.5,1.44922 5.77644,-0.29863 10.78376,-1.27548 15.62891,-3.04883 3.92129,-1.43521 9.32129,-3.81881 12,-5.29883 2.67871,-1.48001 7.8412,-5.64228 11.47265,-9.24805 3.63146,-3.60577 7.57926,-8.46914 8.77149,-10.80664 1.19222,-2.3375 1.72816,-4.25 1.19141,-4.25 -0.53675,0 -2.63398,1.125 -4.66016,2.5 -2.02617,1.375 -4.28018,2.5 -5.00977,2.5 -0.72959,0 -2.88041,-0.73901 -4.77929,-1.64453 -3.41684,-1.62937 -3.49625,-1.61388 -7.73047,1.5 -2.35314,1.73052 -5.50395,3.14453 -7,3.14453 -1.49605,0 -4.78215,-0.88244 -7.30274,-1.96289 -3.07083,-1.31631 -4.58203,-2.57218 -4.58203,-3.80468 0,-1.01166 1.5706,-3.36208 3.49024,-5.22266 3.30991,-3.20809 3.96873,-3.41571 12.75,-4.03125 5.09286,-0.35699 11.00644,-1.40035 13.14257,-2.31836 2.13612,-0.91801 7.40203,-4.25426 11.70118,-7.41406 4.29914,-3.1598 8.32475,-6.93656 8.94531,-8.39258 0.89858,-2.10833 0.80311,-3.27253 -0.46289,-5.7207 -0.87429,-1.69071 -3.26385,-4.21275 -5.31055,-5.60352 -2.04671,-1.39077 -3.98357,-2.5293 -4.30469,-2.5293 z m -96.67382,5 c -1.28858,0 -3.84423,0.62762 -5.67969,1.39453 -1.83545,0.7669 -4.06992,2.44219 -4.9668,3.72266 -0.89688,1.28048 -1.63086,3.70413 -1.63086,5.38477 0,1.68064 1.60956,6.41573 3.57813,10.52343 2.84803,5.94285 5.4923,9.35973 12.93945,16.72266 5.1475,5.08928 10.06099,9.25195 10.91992,9.25195 0.85894,0 1.56082,-0.3375 1.56055,-0.75 -2.8e-4,-0.4125 -0.90884,-3.14023 -2.01953,-6.0625 -1.11069,-2.92227 -1.78966,-5.68385 -1.50977,-6.13672 0.27989,-0.45287 3.47281,0.0817 7.09571,1.1875 5.16888,1.57772 6.84049,1.74784 7.76171,0.79102 0.90653,-0.94154 0.61169,-1.59538 -1.28906,-2.87305 -1.35386,-0.91006 -4.63604,-3.3696 -7.29492,-5.46484 -2.65888,-2.09524 -6.78196,-6.45431 -9.16211,-9.6875 -2.4168,-3.28299 -5.12848,-8.55599 -6.14258,-11.94141 -1.54994,-5.17429 -2.16035,-6.0625 -4.16015,-6.0625 z m 110.72265,4.72461 v 7.08985 c 0,3.89888 -0.50528,9.47215 -1.12304,12.38671 -0.61776,2.91457 -1.92635,6.87383 -2.90821,8.79883 -0.98187,1.925 -3.17658,4.8221 -4.87695,6.4375 -1.70037,1.6154 -3.0918,3.3029 -3.0918,3.75 0,0.4471 0.46358,0.8125 1.03125,0.8125 0.56766,0 2.48016,-0.61639 4.25,-1.37109 1.76983,-0.7547 5.00723,-2.81186 7.19336,-4.57031 2.18614,-1.75845 5.46022,-5.28482 7.27539,-7.83789 1.81517,-2.55307 4.18918,-7.52039 5.27539,-11.03711 1.0862,-3.51672 1.96741,-7.35754 1.95899,-8.53711 -0.008,-1.17956 -0.35802,-2.68605 -0.77735,-3.34571 -0.41933,-0.65966 -3.78712,-1.50792 -7.48437,-1.88671 z m -149.66406,0.27539 c -1.30601,0 -1.46728,0.68426 -0.88477,3.75 0.39189,2.0625 1.02735,7.03846 1.41211,11.05664 0.42881,4.47819 1.23146,7.63615 2.07618,8.15821 0.75793,0.46844 1.9211,0.64304 2.58398,0.38867 0.66287,-0.25437 1.71534,-1.58446 2.33984,-2.95508 0.6245,-1.37063 1.13672,-4.93132 1.13672,-7.91211 0,-4.87025 -0.35803,-5.77599 -3.5332,-8.95117 -1.94334,-1.94333 -4.25223,-3.53516 -5.13086,-3.53516 z m 187.8418,0.15821 c -0.61935,-0.0153 -1.69824,0.31833 -2.76368,0.88867 -1.42058,0.76027 -3.5567,2.74825 -4.74609,4.41797 -1.5942,2.23801 -2.10799,4.28162 -1.95508,7.77734 0.11408,2.60807 0.74243,5.75807 1.39649,7 0.65406,1.24193 1.6839,2.59458 2.28906,3.00391 0.61343,0.41493 1.87592,-0.18776 2.85156,-1.36133 1.14709,-1.37981 1.75,-3.81047 1.75,-7.05274 0,-2.72052 0.50635,-6.96116 1.12696,-9.42578 0.6206,-2.46462 0.84643,-4.76489 0.5,-5.11132 -0.0866,-0.0866 -0.24277,-0.13161 -0.44922,-0.13672 z m 66.91796,6.10156 c -1.79951,0.0763 -4.91929,0.74611 -10.38281,2.14844 -6.16777,1.58308 -13.60151,3.75553 -16.51953,4.82812 -3.86142,1.41935 -5.21398,2.40115 -4.9707,3.60742 0.2568,1.27334 1.42746,1.64203 5.05469,1.59375 2.59668,-0.0346 4.72265,0.27534 4.72265,0.6875 0,0.41215 -2.3625,2.01509 -5.25,3.5625 -3.64128,1.95136 -5.7924,3.9223 -7.01953,6.43164 -0.9731,1.98988 -1.48703,4.35238 -1.14258,5.25 0.34445,0.89762 1.36392,1.63113 2.26758,1.63086 0.90365,-2.8e-4 4.11953,-0.93791 7.14453,-2.08398 3.025,-1.14606 8.55781,-3.68678 12.29492,-5.64649 3.87953,-2.0344 8.4919,-5.49298 10.75196,-8.06054 2.1771,-2.47331 4.48239,-6.24647 5.12304,-8.38477 0.89804,-2.99739 0.8891,-4.1637 -0.0391,-5.09179 -0.35189,-0.35189 -0.95544,-0.51842 -2.03516,-0.47266 z m -323.00585,0.0371 c -0.263,-0.005 -0.45125,0.0123 -0.55665,0.0527 -0.84313,0.32354 -1.5332,1.63925 -1.5332,2.92383 0,1.28459 1.28089,4.35759 2.84766,6.82813 1.56678,2.47055 4.60428,5.85894 6.75,7.53125 2.14573,1.67231 5.25234,3.80651 6.90234,4.74218 1.65,0.93566 6.15,3.00336 10,4.59375 3.85,1.5904 8.0125,2.92219 9.25,2.96094 1.89,0.0592 2.25,-0.45394 2.25,-3.20703 0,-1.80263 -0.71837,-4.30213 -1.5957,-5.55469 -0.87733,-1.25257 -3.65659,-3.26534 -6.17578,-4.47265 -2.51919,-1.20731 -4.73553,-2.67252 -4.92578,-3.25782 -0.21353,-0.65695 1.46874,-1.03962 4.39648,-1 3.6067,0.0488 4.82131,-0.32512 5.07031,-1.55859 0.21985,-1.08901 -0.92019,-2.11983 -3.4707,-3.13867 -2.08926,-0.83459 -9.29626,-2.97141 -16.01563,-4.74805 -5.87945,-1.55456 -11.35233,-2.6602 -13.19335,-2.69531 z m 44.76953,8.70312 c -1.73543,0 -3.18043,0.73262 -3.82422,1.93555 -0.56935,1.06384 -1.03076,3.87634 -1.02539,6.25 0.006,2.43413 1.03775,6.49439 2.36719,9.31445 1.29639,2.75 4.84827,8.375 7.89453,12.5 3.04626,4.125 5.39601,7.64864 5.2207,7.83008 -0.17531,0.18145 -1.4322,-0.3994 -2.79297,-1.29101 -2.27603,-1.49132 -2.60438,-1.49162 -4.08789,-0.008 -0.88696,0.88695 -1.61133,2.85433 -1.61133,4.3711 0,1.56781 1.62324,5.08272 3.76367,8.14648 2.07077,2.96404 6.35076,7.47069 9.50977,10.01563 3.159,2.54495 9.86172,7.39825 14.89648,10.7832 5.03476,3.38447 9.75672,6.15234 10.49219,6.15234 0.73546,0 1.33789,-0.42779 1.33789,-0.95117 0,-0.52339 -3.2625,-4.23979 -7.25,-8.25976 -3.9875,-4.01997 -9.26166,-10.22969 -11.7207,-13.79883 -4.42422,-6.42149 -4.43688,-6.46058 -1.10742,-3.6836 2.10976,1.75968 3.71674,2.45513 4.30859,1.86329 0.59186,-0.59186 -0.55581,-3.69012 -3.07812,-8.30665 -2.21243,-4.04934 -6.72071,-14.27446 -10.01758,-22.72265 -3.29688,-8.44819 -7.00354,-16.43569 -8.23828,-17.75 -1.32679,-1.41231 -3.3879,-2.39063 -5.03711,-2.39063 z m 234.30078,0 c -1.71633,0 -3.85541,0.97324 -5.27344,2.39649 -1.36094,1.36595 -4.69247,8.56342 -7.75195,16.75 -2.95057,7.89517 -7.35267,18.08731 -9.78125,22.65039 -2.42859,4.56307 -4.14473,8.73515 -3.81446,9.26953 0.34455,0.5575 1.9567,0.0108 3.78125,-1.28125 l 3.17969,-2.25195 -1.89258,2.98437 c -1.04097,1.64099 -4.36056,6.02839 -7.37695,9.75 -3.01638,3.72161 -7.22728,8.14688 -9.35742,9.83399 -2.13015,1.6871 -3.87305,3.70559 -3.87305,4.48437 0,0.77878 0.62176,1.41406 1.38281,1.41406 0.76105,0 4.47355,-2.09869 8.25,-4.66601 3.77645,-2.56733 10.11219,-7.09539 14.07813,-10.06055 3.96594,-2.96515 8.37402,-6.77388 9.79687,-8.46484 1.42285,-1.69096 3.46536,-4.79574 4.53907,-6.90039 1.07371,-2.10465 1.95312,-4.71426 1.95312,-5.79688 0,-1.08263 -0.70424,-2.67105 -1.56445,-3.53125 -1.41868,-1.41868 -1.84489,-1.41947 -4.58985,0 -2.33872,1.2094 -2.83484,1.25424 -2.18554,0.19531 0.46208,-0.7536 2.71873,-3.82359 5.01562,-6.82226 2.29689,-2.99866 5.55939,-8.08634 7.25,-11.30469 1.87955,-3.57803 3.07422,-7.33961 3.07422,-9.68359 0,-2.10834 -0.44017,-4.98764 -0.97656,-6.39844 -0.73619,-1.93632 -1.68291,-2.56641 -3.86328,-2.56641 z m -182.11719,7 c -0.48467,0 -1.8247,2.83749 -2.97851,6.30469 -1.71768,5.16163 -1.89829,6.87656 -0.99805,9.45898 0.72202,2.07121 2.87258,4.308 6.26562,6.51758 2.84176,1.85058 7.51953,4.3531 10.39453,5.56055 2.875,1.20745 7.825,2.82448 11,3.59375 3.175,0.76926 6.11094,1.43659 6.52344,1.48242 0.4125,0.0458 0.7388,-0.48047 0.72461,-1.16797 -0.0142,-0.6875 -2.23006,-2.74349 -4.92383,-4.57031 -2.69377,-1.82682 -7.66674,-6.06528 -11.05078,-9.41797 -3.38403,-3.35268 -7.93477,-8.71975 -10.11328,-11.92773 -2.1785,-3.20799 -4.35909,-5.83399 -4.84375,-5.83399 z m 336.52149,2 c -1.33906,0 -5.50155,0.6447 -9.25,1.43164 -3.74847,0.78694 -12.88946,2.1724 -20.31446,3.07813 -8.03082,0.97964 -25.3499,1.87297 -42.75,2.20703 -16.0875,0.30886 -29.25,0.9602 -29.25,1.44727 0,0.48708 1.03113,1.2788 2.29102,1.75781 1.25988,0.479 6.77238,1.61734 12.25,2.52929 5.70359,0.94957 19.03931,1.91027 31.20898,2.25 11.6875,0.32626 21.25,0.93909 21.25,1.36133 0,0.42223 -3.2625,1.02827 -7.25,1.34571 -3.9875,0.31744 -14.225,0.67374 -22.75,0.79296 -8.525,0.11922 -19.83896,-0.16607 -25.14062,-0.63476 l -9.63868,-0.85352 -6.1875,4.76172 c -3.40284,2.61842 -6.4427,5.42809 -6.75585,6.24414 -0.31314,0.81605 9.9e-4,1.83642 0.69921,2.26758 0.69764,0.43116 6.05148,1.51134 11.89649,2.40039 5.84501,0.88905 11.97695,1.77298 13.62695,1.96485 1.65,0.19188 10.425,0.40895 19.5,0.48046 9.075,0.0715 19.65,-0.31184 23.5,-0.85156 3.85,-0.53974 10.6,-1.7362 15,-2.6582 7.82596,-1.6399 8.15364,-1.82942 15.07227,-8.74805 3.88987,-3.88985 8.95237,-9.86026 11.25,-13.26758 2.29763,-3.40732 4.17773,-6.89482 4.17773,-7.75 0,-0.98073 -0.89992,-1.55664 -2.43554,-1.55664 z M 70.271259,141.5785 c -1.3558,-0.0395 -2.174883,0.12215 -2.533203,0.48047 -0.71664,0.71665 0.271072,3.02157 3.195312,7.45312 2.32837,3.52855 7.633786,9.84715 11.791016,14.04297 6.95267,7.01721 8.040684,7.73039 13.552734,8.89062 3.29584,0.69373 9.592182,1.85583 13.992182,2.58204 5.44281,0.89832 14.71262,1.20633 29,0.96289 13.26255,-0.22598 24.50028,-0.95983 30.5,-1.99024 5.225,-0.89735 10.2875,-1.87374 11.25,-2.16992 0.9625,-0.29618 1.75,-1.17111 1.75,-1.94531 0,-0.7742 -2.8125,-3.69118 -6.25,-6.48242 l -6.25,-5.07618 -10,0.75196 c -5.5,0.41274 -16.975,0.65573 -25.5,0.54101 -8.525,-0.11472 -18.7625,-0.46771 -22.75,-0.78515 -3.9875,-0.31744 -7.25,-0.92222 -7.25,-1.34375 0,-0.42154 9.3375,-1.01993 20.75,-1.32813 11.81292,-0.31902 25.24988,-1.28662 31.19922,-2.24805 5.74768,-0.92885 11.51263,-2.09246 12.81055,-2.58593 1.29792,-0.49347 2.08078,-1.34936 1.74023,-1.90039 -0.38018,-0.61514 -8.34108,-1.00196 -20.62304,-1.00196 -11.00198,0 -26.61139,-0.4775 -34.68946,-1.0625 -8.07806,-0.585 -18.737494,-1.67546 -23.687494,-2.42383 -4.95,-0.74835 -12.262207,-1.93731 -16.248047,-2.64062 -2.502931,-0.44164 -4.3942,-0.68122 -5.75,-0.7207 z m 113.400391,11.84765 c -1.08064,0 -2.21187,0.64513 -2.51368,1.43164 -0.30181,0.7865 0.18161,2.97226 1.07618,4.85743 0.89457,1.88516 3.03746,4.86921 4.76171,6.63281 1.72425,1.7636 4.97744,4.28624 7.22852,5.60547 2.2511,1.31922 6.5567,3.06178 9.56836,3.87109 3.01167,0.80931 7.79049,1.50091 10.61914,1.53711 3.45674,0.0442 5.31413,-0.37913 5.66406,-1.29102 0.28635,-0.74621 -0.005,-2.38685 -0.64453,-3.64453 -0.64,-1.25769 -2.68238,-3.0949 -4.53906,-4.08398 -1.85668,-0.98907 -5.11918,-2.49703 -7.25,-3.34961 -2.13082,-0.85256 -3.87305,-2.06621 -3.87305,-2.69727 0,-0.7868 1.5472,-0.96436 4.92383,-0.56445 3.61474,0.42811 5.24081,0.20361 6.11328,-0.84766 0.92917,-1.11958 0.88951,-1.53893 -0.17578,-1.92187 -0.74944,-0.2694 -7.57862,-1.62461 -15.17773,-3.01172 -7.59912,-1.38711 -14.7006,-2.52344 -15.78125,-2.52344 z m 316.01757,0 c -1.1782,0 -8.50469,1.16293 -16.28125,2.58399 -7.77657,1.42106 -14.58546,3.01613 -15.13086,3.54297 -0.65108,0.62892 -0.49817,1.26259 0.44532,1.8457 0.79034,0.48846 3.59962,0.63133 6.24218,0.31836 2.93097,-0.34713 4.80469,-0.17582 4.80469,0.4375 0,0.55297 -3.13478,2.40658 -6.96484,4.11914 -3.83006,1.71256 -7.66408,4.18361 -8.52149,5.49219 -0.88578,1.35187 -1.26554,3.14476 -0.8789,4.15234 0.59232,1.54356 1.6001,1.70158 7.77343,1.2207 3.90072,-0.30385 9.69218,-1.55467 12.8711,-2.78125 v -0.002 c 3.17892,-1.22659 7.80944,-4.01681 10.29101,-6.20117 2.48158,-2.18437 5.42562,-5.76093 6.54102,-7.94727 1.11538,-2.18634 1.78635,-4.60528 1.49023,-5.37695 -0.29612,-0.77165 -1.50344,-1.4043 -2.68164,-1.4043 z m -99.42773,2 c -0.68679,0 -1.77654,0.63648 -2.42188,1.41407 -0.64535,0.77759 -3.10616,2.32304 -5.46875,3.43359 -2.36259,1.11055 -7.05004,2.33013 -10.41601,2.71094 -4.97849,0.56325 -6.87114,1.33788 -10.15235,4.14648 -2.21843,1.8989 -4.0332,3.86591 -4.0332,4.37305 0,0.50715 1.21181,0.92187 2.69336,0.92187 1.48156,0 8.11906,-0.69635 14.75,-1.54883 6.63095,-0.85248 13.01847,-1.74941 14.19531,-1.99218 1.17683,-0.24278 2.42227,-1.17632 2.76758,-2.07617 0.34531,-0.89986 0.33791,-3.82988 -0.0176,-6.50977 -0.38255,-2.88362 -1.15747,-4.87305 -1.89648,-4.87305 z m 100.04297,24.00782 c -2.59642,-0.006 -2.78257,0.1726 -1.5,1.44335 0.80536,0.79796 6.18984,3.2835 11.96484,5.52344 5.775,2.23995 11.85,4.70939 13.5,5.48633 2.88883,1.36026 2.90845,1.41497 0.55078,1.47656 -1.34661,0.0352 -6.29661,-1.13707 -11,-2.60351 -4.70338,-1.46644 -11.02578,-2.70394 -14.05078,-2.75 -4.24035,-0.0646 -6.24434,0.44719 -8.75,2.23437 -1.7875,1.27496 -3.25,3.16201 -3.25,4.19336 0,1.03137 0.98103,2.56278 2.17969,3.40235 1.19866,0.83957 6.26116,3.31274 11.25,5.49609 4.98884,2.18335 13.10005,5.1335 18.02539,6.55664 4.92535,1.42314 11.90036,2.9981 15.5,3.49805 3.59965,0.49996 9.78471,0.74817 13.74609,0.55273 6.12512,-0.30219 7.89174,-0.82809 11.80079,-3.51758 2.52814,-1.73941 7.82767,-6.26832 11.77734,-10.06445 6.25532,-6.01217 6.99066,-7.08119 5.70117,-8.28906 -0.99828,-0.93508 -7.6187,-1.93066 -20.33008,-3.0586 -10.36749,-0.91996 -22.96749,-2.52678 -28,-3.57031 -5.03251,-1.04354 -12.97539,-2.82038 -17.65039,-3.94922 -4.675,-1.12883 -9.83448,-2.05669 -11.46484,-2.06054 z m -316.8457,0.0879 c -1.40635,0.0194 -4.31432,0.44611 -7.49024,1.13086 -4.23457,0.91296 -12.87422,2.78591 -19.19922,4.1621 -6.325,1.3762 -20.05,3.25892 -30.5,4.18555 -12.70219,1.12634 -19.48539,2.13985 -20.46484,3.05664 -1.27074,1.18946 -0.74018,2.10644 4,6.90821 3.00579,3.04483 8.05936,7.43081 11.23047,9.74804 3.17112,2.31724 6.99612,4.52402 8.5,4.9043 1.50389,0.38027 6.96632,0.46188 12.13867,0.17969 5.17235,-0.28219 13.58614,-1.57406 18.69922,-2.8711 5.11309,-1.29704 14.15808,-4.42394 20.09765,-6.94726 5.93957,-2.52332 11.90294,-5.43734 13.25196,-6.47657 2.12154,-1.63431 2.30119,-2.21857 1.34179,-4.32421 -0.61005,-1.33892 -2.79114,-3.23312 -4.84765,-4.20899 -2.73861,-1.29957 -4.97009,-1.60446 -8.33985,-1.14258 -2.53048,0.34684 -8.35279,1.77483 -12.93945,3.17383 -4.58665,1.39903 -9.31359,2.40214 -10.50391,2.22852 -1.32618,-0.19343 3.17631,-2.4092 11.62696,-5.72071 7.58492,-2.97226 14.04197,-5.81081 14.34961,-6.30859 0.30765,-0.49778 0.26625,-1.19863 -0.0918,-1.55664 -0.0895,-0.0895 -0.39059,-0.12757 -0.85937,-0.12109 z m 21.52929,1.91601 c -7.34095,-0.009 -9.40343,0.30402 -9.85937,1.49219 -0.31706,0.82623 -0.27527,2.69778 0.0918,4.16016 0.36703,1.46238 3.26284,5.34435 6.43555,8.62695 4.30633,4.45548 6.76362,6.1758 9.69141,6.7832 2.15707,0.44752 7.16719,0.68133 11.13476,0.52149 3.96758,-0.15984 7.90156,-0.86094 8.74219,-1.5586 1.3441,-1.1155 1.15989,-1.73495 -1.53125,-5.13281 -2.01964,-2.54999 -4.31218,-4.17606 -6.74219,-4.7832 -2.02509,-0.50597 -4.91914,-1.19844 -6.43164,-1.53907 -1.5125,-0.34063 -2.75,-1.07407 -2.75,-1.63086 0,-0.55678 0.5625,-1.18663 1.25,-1.39843 0.6875,-0.2118 2.4875,-0.65686 4,-0.98828 1.5125,-0.33142 2.75,-1.20862 2.75,-1.95118 0,-0.78326 -1.57444,-1.6111 -3.75,-1.9707 -2.0625,-0.34091 -7.92649,-0.6248 -13.03125,-0.63086 z m 273.5625,0 c -5.10476,0.006 -10.96875,0.28995 -13.03125,0.63086 -2.17556,0.3596 -3.75,1.18744 -3.75,1.9707 0,0.74256 1.2375,1.61976 2.75,1.95118 1.5125,0.33142 3.3125,0.77648 4,0.98828 0.6875,0.2118 1.25,0.84166 1.25,1.39843 0,0.55679 -1.2375,1.29023 -2.75,1.63086 -1.5125,0.34063 -4.41377,1.03474 -6.44726,1.54297 -2.33868,0.58451 -4.80682,2.27075 -6.7168,4.58789 -2.19697,2.66531 -2.73673,4.00478 -1.98047,4.91602 0.57168,0.68883 2.01924,1.44266 3.2168,1.67578 1.19756,0.23312 4.29152,0.48565 6.87695,0.56055 2.58543,0.0749 6.93173,-0.34302 9.6582,-0.92774 4.10348,-0.88004 5.91144,-2.06251 10.49805,-6.87109 3.04747,-3.19496 5.83872,-6.99146 6.20117,-8.43555 0.36244,-1.44409 0.39914,-3.30072 0.082,-4.12695 -0.45594,-1.18817 -2.51647,-1.5009 -9.85742,-1.49219 z m -125.28125,0.95703 -3.90234,2.09961 c -3.05269,1.64242 -5.01263,1.98324 -9,1.56641 -2.8036,-0.29309 -8.1696,-0.83539 -11.92383,-1.20508 l -6.82617,-0.67187 -5.29492,5.46679 c -3.46799,3.58051 -6.01155,7.38774 -7.37696,11.03711 -1.1464,3.06404 -2.38879,7.85783 -2.75976,10.6543 -0.42658,3.21573 -0.30201,5.08398 0.33984,5.08398 0.55818,0 2.86854,-3.11835 5.13281,-6.92968 2.26427,-3.81133 5.31261,-7.87087 6.77539,-9.02149 1.46278,-1.15062 3.73368,-2.36035 5.04493,-2.68945 1.31125,-0.32911 2.65972,-0.32271 2.99804,0.0156 0.33832,0.33832 0.0208,2.4215 -0.70703,4.62696 -0.72787,2.20546 -1.03885,4.29513 -0.68945,4.64453 0.3494,0.3494 2.44989,-1.00373 4.66601,-3.00586 2.21612,-2.00213 4.48667,-3.63867 5.04688,-3.63867 0.56021,0 1.42556,1.0125 1.92187,2.25 0.4963,1.2375 1.39284,9.9 1.99219,19.25 0.59936,9.35 1.08362,21.63701 1.07617,27.30664 -0.007,5.66963 -0.45126,14.44463 -0.98437,19.5 -0.5331,5.05538 -1.42766,13.51168 -1.98828,18.79101 -0.56063,5.27933 -2.15428,13.5135 -3.54102,18.29883 -1.38673,4.78532 -4.05852,11.94199 -5.93945,15.90234 -1.88093,3.96034 -5.47663,10.32814 -7.99024,14.15235 -2.71141,4.12515 -4.57031,8.10479 -4.57031,9.7832 0,1.55595 0.65229,4.38954 1.44922,6.29688 0.79694,1.90733 2.11603,3.46875 2.93164,3.46875 0.81561,0 2.44917,-1.35806 3.63086,-3.01758 1.18168,-1.65952 5.21494,-9.44086 8.96289,-17.29102 3.74796,-7.85015 7.53711,-14.8728 8.41992,-15.60547 0.88281,-0.73267 1.60547,-1.89758 1.60547,-2.58789 0,-0.69031 -0.67129,-1.81057 -1.49023,-2.49023 -0.81894,-0.67967 -1.31463,-1.52287 -1.10157,-1.87305 0.21306,-0.35018 1.53839,-5.81172 2.94532,-12.13672 1.40693,-6.325 3.05119,-16.40454 3.65234,-22.40039 0.61626,-6.14658 1.71785,-11.79545 2.52734,-12.95117 1.28472,-1.83419 1.2134,-2.28714 -0.6875,-4.31055 -2.01605,-2.14598 -2.09949,-2.99951 -1.63281,-16.74609 0.27046,-7.96666 0.11096,-14.86755 -0.35547,-15.33398 -0.46643,-0.46643 -1.13667,-4.25052 -1.48828,-8.41016 -0.35162,-4.15965 -0.32573,-9.65093 0.0566,-12.20117 0.40432,-2.69617 1.75251,-5.89344 3.22266,-7.64063 2.02967,-2.41212 3.31337,-3.00586 6.50586,-3.00586 2.18726,0 4.95881,0.51004 6.16016,1.13282 1.20134,0.62279 5.17887,3.99779 8.83789,7.5 3.65902,3.50222 7.37152,6.36718 8.25,6.36718 0.87848,0 1.59765,-0.1786 1.59765,-0.39843 0,-0.21983 -2.62581,-4.60733 -5.83398,-9.75 -4.76011,-7.63044 -6.64547,-9.76569 -10.25,-11.60352 -2.42933,-1.23864 -5.54102,-3.60798 -6.91602,-5.26562 z m 84.76758,18.375 c -1.52164,0.11952 -7.72401,3.65297 -16.53125,9.43555 -8.37978,5.50193 -18.39313,11.58083 -22.25195,13.50781 -3.85881,1.92698 -11.05881,4.73978 -16,6.25196 -4.94118,1.51217 -9.41306,3.13474 -9.93555,3.60546 -0.53346,0.48059 3.54557,0.85547 9.30273,0.85547 5.72822,0 13.42993,-0.70426 17.45118,-1.59765 3.95858,-0.87947 11.24726,-3.53442 16.19726,-5.89844 4.95,-2.36402 11.63039,-6.40921 14.8457,-8.99024 3.87356,-3.10939 6.51422,-6.20547 7.82813,-9.17578 1.09064,-2.46558 1.73372,-5.13424 1.42773,-5.93164 -0.30599,-0.7974 -1.24856,-1.71668 -2.09375,-2.04101 -0.0592,-0.0227 -0.13878,-0.0294 -0.24023,-0.0215 z m -192.61133,0.21289 c -0.23316,0.01 -0.42256,0.0674 -0.57617,0.16407 -0.86958,0.54753 -1.71734,1.68948 -1.88477,2.53906 -0.16744,0.84957 0.35381,3.11972 1.15821,5.04492 0.85917,2.05627 4.22178,5.77742 8.15234,9.01953 3.68001,3.03544 10.00866,7.13654 14.0625,9.11328 4.05384,1.97673 10.87121,4.45409 15.15039,5.50586 4.92068,1.20945 11.54864,1.93858 18.03125,1.98438 5.6375,0.0398 10.25,-0.32155 10.25,-0.80469 0,-0.48313 -3.0375,-1.62682 -6.75,-2.54102 -3.7125,-0.91421 -11.7,-4.07596 -17.75,-7.02539 -6.05,-2.94943 -17.2645,-9.51834 -24.91992,-14.59765 -9.46553,-6.28031 -13.29172,-8.47116 -14.92383,-8.40235 z m -49.66406,3.44336 c -0.63451,0 -6.11307,2.53753 -12.17578,5.63867 -6.06271,3.10116 -12.77681,7.30703 -14.91992,9.34571 -3.04779,2.8993 -3.89436,4.44815 -3.88672,7.11133 0.005,1.87266 1.06989,5.68473 2.36719,8.4707 1.29728,2.78596 3.81442,6.72346 5.59374,8.75 2.24944,2.56196 4.07005,3.68359 5.97461,3.68359 1.50652,0 4.59293,-1.0125 6.85743,-2.25 2.26451,-1.2375 8.63425,-6.65938 14.15625,-12.05078 5.84606,-5.70778 10.04101,-10.60797 10.04101,-11.72851 0,-1.05844 -1.20354,-2.71242 -2.67383,-3.67578 -1.47511,-0.96655 -4.38072,-1.70551 -6.48242,-1.6504 -2.09481,0.0549 -6.53157,1.11681 -9.85937,2.36133 -3.32781,1.24451 -6.25522,2.05729 -6.50586,1.80664 -0.25064,-0.25064 0.67525,-1.9972 2.05859,-3.88281 1.38335,-1.88561 4.18945,-4.57299 6.23438,-5.97266 2.04494,-1.39968 3.86626,-3.31218 4.04687,-4.25 0.18061,-0.93783 -0.19166,-1.70703 -0.82617,-1.70703 z m 291.81055,0.30078 c -0.57755,0.0458 -0.80274,0.4103 -0.80274,1.14258 0,0.86729 1.72282,2.8044 3.83008,4.30469 2.10728,1.5003 5.03482,4.26951 6.50391,6.1543 1.46909,1.88479 2.45459,3.64306 2.1914,3.90625 -0.26318,0.26319 -3.2366,-0.52875 -6.60742,-1.75782 -3.37082,-1.22906 -8.10422,-2.26427 -10.51953,-2.30078 -2.91105,-0.044 -5.06631,0.54603 -6.39453,1.74805 -1.10203,0.99732 -2.00391,2.6196 -2.00391,3.60547 0,0.98587 4.51706,6.20431 10.03906,11.5957 5.522,5.3914 11.8937,10.81328 14.15821,12.05078 2.2645,1.2375 5.35649,2.25 6.87109,2.25 1.84956,0 3.60656,-1.01211 5.35156,-3.08593 1.42899,-1.69825 3.7163,-4.99826 5.08399,-7.33204 1.36769,-2.33379 2.77718,-6.35514 3.13086,-8.93554 0.61824,-4.51053 0.48852,-4.83839 -3.375,-8.51367 -2.21025,-2.10256 -8.46192,-6.08913 -13.89063,-8.85938 -5.42872,-2.77024 -10.88164,-5.34583 -12.11914,-5.72266 -0.62691,-0.1909 -1.10073,-0.2775 -1.44726,-0.25 z m -252.98828,2.75782 c -1.35549,-0.0138 -3.19115,0.0592 -5.59376,0.21484 -4.82845,0.31283 -10.00345,1.12672 -11.5,1.80859 -2.18782,0.99684 -2.7207,1.90948 -2.7207,4.6543 0,2.78968 1.05113,4.51508 5.75,9.44531 5.72022,6.00187 5.77291,6.03173 10.41406,5.48438 2.56593,-0.30261 7.40343,-1.9337 10.75,-3.62305 3.34658,-1.68935 6.08594,-3.68916 6.08594,-4.44531 0,-0.75615 -0.82334,-2.39151 -1.83008,-3.63477 -1.60312,-1.97978 -2.65865,-2.23882 -8.5,-2.07812 -3.66826,0.10092 -6.66992,-0.23769 -6.66992,-0.75195 0,-0.51425 1.575,-1.86422 3.5,-3 1.925,-1.13578 3.5,-2.59613 3.5,-3.2461 0,-0.53902 -0.92641,-0.80514 -3.18554,-0.82812 z m 214.20117,0.0117 c -2.1256,0.0262 -3.01563,0.29313 -3.01563,0.82421 0,0.64607 1.575,2.10251 3.5,3.23829 1.925,1.13578 3.5,2.47111 3.5,2.96679 0,0.49567 -3.12454,0.90039 -6.94336,0.90039 -6.04138,0 -7.1455,0.28885 -8.5,2.22266 -0.85618,1.22237 -1.55664,2.74735 -1.55664,3.38672 0,0.63936 1.20151,1.94801 2.66992,2.91015 1.46841,0.96214 4.95591,2.57381 7.75,3.58008 2.79409,1.00628 6.47396,1.8454 8.17774,1.86524 2.50146,0.0291 4.18583,-1.10557 8.75,-5.89063 4.64933,-4.87434 5.65234,-6.5408 5.65234,-9.40039 0,-3.01317 -0.43307,-3.63454 -3.25,-4.6582 -1.7875,-0.64957 -6.9625,-1.43153 -11.5,-1.73828 -2.23791,-0.15129 -3.95901,-0.22274 -5.23437,-0.20703 z m -195.97266,18.92968 c -0.53956,0 -2.90923,0.97473 -5.26367,2.16407 -2.35443,1.18935 -5.2918,3.06729 -6.5293,4.17382 -1.2375,1.10653 -2.25,2.74917 -2.25,3.65039 0,0.90123 1.2375,2.79243 2.75,4.20313 1.5125,1.4107 3.875,3.14862 5.25,3.86133 1.375,0.71271 3.85,1.62133 5.5,2.01953 1.65,0.39819 3.76333,0.76987 4.69727,0.82617 0.93395,0.0563 4.42145,-2.16354 7.75,-4.93359 3.32856,-2.77005 6.05273,-5.71777 6.05273,-6.55078 0,-0.83302 -1.66892,-2.21288 -3.70703,-3.06446 -3.47965,-1.45389 -3.97076,-1.41855 -8.06445,0.57032 -2.39776,1.16491 -4.82898,1.82896 -5.40235,1.4746 -0.61616,-0.3808 -0.78804,-2.2296 -0.42187,-4.51953 0.36576,-2.28733 0.21784,-3.875 -0.36133,-3.875 z m 177.81445,0 c -0.7015,0 -0.84056,1.27935 -0.39648,3.64649 0.46164,2.46075 0.28202,3.8935 -0.55078,4.4082 -0.67904,0.41968 -3.09273,-0.13912 -5.36719,-1.24414 -3.85872,-1.87471 -4.37824,-1.90647 -7.83789,-0.46094 -2.03811,0.85158 -3.70508,2.15912 -3.70508,2.9043 0,0.74517 1.4625,2.71718 3.25,4.38281 1.7875,1.66564 4.5481,4.00501 6.13477,5.19727 1.58667,1.19226 3.41736,2.16601 4.06836,2.16601 0.651,0 3.52133,-0.6924 6.3789,-1.54101 2.85758,-0.84861 6.7644,-2.9221 8.68164,-4.60547 1.91725,-1.68336 3.48633,-3.8341 3.48633,-4.78125 0,-0.94715 -1.0125,-2.62785 -2.25,-3.73438 -1.2375,-1.10653 -4.17682,-2.98447 -6.53125,-4.17382 -2.35444,-1.18934 -4.76706,-2.16407 -5.36133,-2.16407 z m -218.72265,3 c -1.02583,0 -3.01634,0.90654 -4.42383,2.01367 -1.40749,1.10713 -4.83341,4.87172 -7.61328,8.36524 -2.77987,3.49351 -6.41479,9.22447 -8.07617,12.73633 -1.66137,3.51185 -3.02106,7.30963 -3.02149,8.43945 -4.3e-4,1.12982 1.28917,4.05482 2.86524,6.5 1.57606,2.44518 4.16356,5.62361 5.75,7.0625 1.58643,1.43889 3.78476,3.11186 4.88476,3.71875 1.1,0.6069 2.50191,1.11805 3.11524,1.13477 0.61333,0.0167 2.29663,-0.90004 3.74218,-2.03711 1.44555,-1.13707 4.58197,-4.62457 6.96875,-7.75 2.38678,-3.12543 6.94027,-10.06313 10.11914,-15.41602 4.54146,-7.64736 5.64032,-10.28458 5.13086,-12.31445 -0.42348,-1.68727 -1.83834,-3.08092 -4.08007,-4.01758 -1.88776,-0.78875 -4.7509,-1.43555 -6.36329,-1.43555 -1.68211,0 -5.10666,1.46418 -8.0332,3.4336 -2.80527,1.8878 -5.08094,2.9003 -5.05859,2.25 0.0224,-0.65031 1.37235,-2.7403 3,-4.64453 1.62765,-1.90422 2.95898,-4.49172 2.95898,-5.75 0,-1.56596 -0.58855,-2.28907 -1.86523,-2.28907 z m 259.92969,0 c -1.48298,0 -2.05709,0.6341 -2.03711,2.25 0.0153,1.2375 1.3653,4.01921 3,6.17969 1.6347,2.16048 2.97265,4.271 2.97265,4.69141 0,0.4204 -2.3625,-0.8145 -5.25,-2.74414 -4.44241,-2.96875 -5.9023,-3.43996 -9.48633,-3.06641 -2.32957,0.2428 -5.36707,1.18371 -6.75,2.08984 -1.54429,1.01185 -2.51367,2.58348 -2.51367,4.07618 0,1.33674 2.72731,6.84043 6.06055,12.22851 3.33324,5.38807 7.37813,11.65912 8.99023,13.93555 1.61209,2.27643 4.52582,5.53893 6.47461,7.25 1.9488,1.71107 4.00042,3.10937 4.5586,3.10937 0.55817,0 2.22965,-0.63599 3.71484,-1.41406 1.48518,-0.77808 4.11196,-2.91557 5.83789,-4.75 1.72592,-1.83443 3.86342,-4.77497 4.75,-6.53516 0.88657,-1.76019 1.61328,-4.53625 1.61328,-6.16796 0,-1.63172 -0.89451,-5.05055 -1.98633,-7.59766 -1.09182,-2.54711 -3.3436,-6.60741 -5.00586,-9.02344 -1.66227,-2.41602 -5.24097,-6.6687 -7.95117,-9.45117 -2.78035,-2.85448 -5.82707,-5.06055 -6.99218,-5.06055 z m -194.12696,9 c -1.1094,0 -3.20028,1.76032 -4.93164,4.15039 -1.65345,2.28252 -3.00586,5.19173 -3.00586,6.46485 0,1.35878 0.90494,2.79978 2.19141,3.48828 1.20538,0.6451 3.34288,1.52225 4.75,1.94922 1.40712,0.42698 4.21017,0.81405 6.23047,0.86133 2.59207,0.0607 4.59287,-0.68616 6.79492,-2.53907 1.71632,-1.44419 4.05159,-4.45126 5.18945,-6.68164 1.98403,-3.88903 1.99551,-4.10812 0.26563,-5.37304 -0.9921,-0.72543 -3.1809,-1.3027 -4.86328,-1.28321 -1.68238,0.0195 -4.1836,0.67687 -5.5586,1.46289 -1.375,0.78602 -2.80816,1.44537 -3.18359,1.46485 -0.37544,0.0195 -0.96728,-0.86485 -1.31641,-1.96485 -0.34913,-1.1 -1.50301,-2 -2.5625,-2 z m 128.38477,0 c -0.82676,0 -2.29114,0.97659 -3.25586,2.16797 -1.66786,2.0597 -1.87094,2.08428 -4.13281,0.5 -1.30832,-0.91634 -4.02488,-1.66797 -6.03516,-1.66797 -2.06043,0 -4.2082,0.66898 -4.92383,1.53125 -0.95985,1.15655 -1.00054,2.11804 -0.16797,3.94532 0.60561,1.32918 2.74943,4.24118 4.76367,6.4707 3.33683,3.69347 4.09998,4.05273 8.58594,4.05273 2.96654,0 6.49669,-0.80223 8.88281,-2.01953 2.86692,-1.46261 3.96094,-2.65021 3.96094,-4.30273 0,-1.25547 -1.39031,-4.17212 -3.08789,-6.48047 -1.69758,-2.30835 -3.76308,-4.19727 -4.58984,-4.19727 z m -24.38867,5.15821 c -0.41383,0.047 -0.93958,0.44411 -1.78907,1.21289 -1.60766,1.45491 -2.38015,1.57431 -4.12109,0.64257 -1.18201,-0.63258 -3.46398,-0.85557 -5.0918,-0.49804 -1.62231,0.35632 -3.42019,1.52744 -3.99609,2.60351 -0.57589,1.07607 -0.78631,2.78042 -0.4668,3.78711 0.31951,1.00669 1.4522,2.61769 2.51563,3.58008 1.06344,0.96239 3.41459,2.08317 5.22461,2.49024 1.81003,0.40707 4.64101,0.52283 6.29101,0.25586 1.65,-0.26698 3.6427,-1.08763 4.42774,-1.82227 1.14892,-1.07516 1.19769,-1.83997 0.25,-3.91992 -0.64754,-1.4212 -1.18494,-3.35049 -1.19336,-4.28711 -0.008,-0.93662 -0.43146,-2.35898 -0.93946,-3.16211 -0.39671,-0.62717 -0.69749,-0.92984 -1.11132,-0.88281 z m -80.22071,0.13867 c -0.21052,-0.0215 -0.38799,0.003 -0.51562,0.082 -0.51053,0.31552 -1.17618,2.0468 -1.47852,3.84766 -0.30234,1.80085 -0.83798,4.00295 -1.1914,4.89453 -0.36461,0.9198 0.0621,2.32573 0.98632,3.25 1.02026,1.02026 3.30257,1.6289 6.10743,1.6289 2.46303,0 5.8294,-0.69697 7.48046,-1.55078 1.65107,-0.85379 3.36125,-2.52471 3.80079,-3.71289 0.43954,-1.18819 0.60281,-2.9102 0.36328,-3.82617 -0.23953,-0.91596 -1.54417,-2.17007 -2.89844,-2.78711 -1.35426,-0.61705 -3.25072,-1.12305 -4.21484,-1.12305 -0.96412,0 -2.28269,0.53074 -2.92969,1.17774 -0.90183,0.90183 -1.63367,0.76258 -3.13672,-0.59766 -0.80875,-0.73191 -1.74151,-1.21861 -2.37305,-1.2832 z m 143.19727,2.70312 c -0.50098,0 -0.91016,0.69847 -0.91016,1.55078 0,0.85231 0.70041,2.90479 1.55664,4.56055 0.85623,1.65576 1.41873,4.62341 1.25,6.5957 l -0.30664,3.58594 -2.5,-3.89648 c -1.37937,-2.14968 -4.23996,-4.74571 -6.38086,-5.79102 -3.03119,-1.48003 -4.65137,-1.69884 -7.40429,-1 -1.93819,0.492 -4.33583,2.01953 -5.32813,3.39453 -1.76396,2.44425 -1.72465,2.79046 1.74024,15.45899 1.94914,7.12664 4.45718,14.77663 5.57421,17 1.11704,2.22337 2.72416,4.82851 3.57032,5.79101 0.84616,0.9625 2.73829,1.75 4.20507,1.75 1.46678,0 4.81203,-0.72978 7.4336,-1.62304 2.62157,-0.89326 6.52633,-3.29913 8.67773,-5.34571 3.16851,-3.01414 3.91211,-4.4202 3.91211,-7.40625 0,-2.02751 -0.90434,-6.36695 -2.00781,-9.64257 -1.10348,-3.27561 -4.29233,-10.23672 -7.08789,-15.46876 -2.79555,-5.23205 -5.49317,-9.51367 -5.99414,-9.51367 z m -206.16016,0.0664 c -0.6875,0.0364 -3.63011,4.87393 -6.53906,10.75 -2.90895,5.87606 -5.94645,12.6539 -6.75,15.06055 -0.80355,2.40666 -1.46094,6.18828 -1.46094,8.40429 0,3.38781 0.62525,4.62413 3.92969,7.76758 2.16148,2.05616 5.87398,4.42538 8.25,5.26563 2.37602,0.84026 5.71181,1.564 7.41406,1.60742 1.78526,0.0455 3.78029,-0.67652 4.71289,-1.70703 0.88923,-0.98259 2.58932,-3.9876 3.7793,-6.67774 1.18998,-2.69015 3.45804,-9.82148 5.03906,-15.84765 1.58103,-6.02615 2.875,-12.02871 2.875,-13.33789 0,-1.60179 -1.06298,-3.04593 -3.25,-4.41407 -2.24809,-1.40635 -4.28421,-1.87661 -6.60547,-1.52929 -1.84567,0.27616 -4.47622,1.23549 -5.8457,2.13281 -1.36949,0.89732 -3.23469,2.93972 -4.14453,4.53906 -0.90984,1.59932 -1.9918,2.91058 -2.4043,2.91406 -0.4125,0.003 -0.73433,-1.45665 -0.71484,-3.24414 0.0195,-1.7875 0.67882,-4.375 1.46484,-5.75 0.78602,-1.375 1.44537,-3.2875 1.46485,-4.25 0.0195,-0.9625 -0.52735,-1.72002 -1.21485,-1.68359 z m 178.63281,13.93359 c -0.94784,0 -1.38281,1.26032 -1.38281,4 0,2.2 -0.43873,4 -0.97461,4 -0.53588,0 -1.66494,-1.33505 -2.50976,-2.96875 -0.84482,-1.63369 -2.47361,-3.47286 -3.61914,-4.08593 -1.14554,-0.61307 -3.18216,-0.83909 -4.52539,-0.50196 -1.38234,0.34694 -2.91897,1.7952 -3.54102,3.33594 -0.60444,1.49714 -1.13252,6.99569 -1.17188,12.2207 -0.0495,6.57884 0.46583,11.07859 1.67579,14.63282 0.96097,2.82282 2.61125,5.9146 3.66601,6.86914 1.05475,0.95455 3.39897,2.06754 5.20899,2.47461 1.81003,0.40707 4.64101,0.51571 6.29101,0.24023 1.65,-0.27548 4.22451,-1.117 5.7207,-1.86914 1.4962,-0.75214 3.21876,-2.3011 3.83008,-3.44336 0.67709,-1.26514 0.85716,-4.09521 0.46094,-7.24023 -0.35775,-2.83955 -1.29983,-7.86407 -2.0957,-11.16407 -0.79587,-3.30001 -2.39355,-8.3625 -3.54883,-11.25 -1.15529,-2.8875 -2.72326,-5.25 -3.48438,-5.25 z m -140,0.26367 c -0.5666,0.0373 -1.15829,0.22619 -1.875,0.55274 -1.32602,0.60418 -3.12074,2.46677 -3.98632,4.14062 -0.86596,1.67384 -2.011,3.04297 -2.54688,3.04297 -0.53588,0 -0.97461,-1.54691 -0.97461,-3.43945 0,-1.89254 -0.43442,-3.70929 -0.96484,-4.03711 -0.53042,-0.32781 -2.07171,1.5896 -3.42578,4.26172 -1.35407,2.67213 -3.13845,7.52637 -3.96485,10.78711 -0.8264,3.26073 -1.80467,8.46083 -2.17383,11.55664 -0.42143,3.53429 -0.25394,6.41098 0.45118,7.72852 0.61765,1.15408 2.12471,2.63681 3.34961,3.29492 1.22489,0.65811 3.57851,1.50443 5.22851,1.88086 1.65,0.37642 4.35,0.45994 6,0.18554 1.65,-0.27439 3.7854,-0.90165 4.7461,-1.39258 0.96071,-0.49092 2.6478,-2.65585 3.74804,-4.8125 1.10024,-2.15665 2.43951,-7.01984 2.97656,-10.80664 0.63169,-4.45392 0.63336,-8.9716 0.008,-12.79492 -0.53233,-3.25065 -0.96947,-6.23885 -0.97266,-6.63867 -0.003,-0.39982 -1.14934,-1.47492 -2.54687,-2.39062 -1.25895,-0.8249 -2.13184,-1.18136 -3.07618,-1.11915 z m 101.72852,2.125 c -0.78628,0.0438 -1.71092,0.23538 -2.92578,0.5625 -2.18894,0.58943 -4.29837,1.85402 -4.6875,2.81055 -0.38914,0.95653 -0.94869,5.67348 -1.24219,10.48242 -0.41765,6.84304 -0.15896,9.72583 1.19141,13.26172 0.94897,2.48485 2.69905,5.04046 3.88867,5.67969 1.18961,0.63923 3.51406,1.45023 5.16406,1.80273 1.65,0.35249 4.575,0.29812 6.5,-0.12109 1.925,-0.41921 4.5125,-1.93468 5.75,-3.36914 2.03277,-2.35631 2.24866,-3.64101 2.23633,-13.30273 -0.008,-5.88183 -0.28555,-11.70782 -0.61719,-12.94532 -0.33163,-1.2375 -1.22548,-2.25 -1.98633,-2.25 -0.76085,0 -1.38281,0.69847 -1.38281,1.55078 0,0.85231 -0.74392,2.98746 -1.65234,4.74415 -1.51024,2.92048 -1.71728,3.02214 -2.42774,1.19921 -0.42734,-1.0965 -1.04226,-3.22492 -1.36523,-4.73047 -0.32297,-1.50553 -1.6675,-3.44513 -2.98828,-4.31054 -1.22171,-0.80049 -2.14462,-1.13751 -3.45508,-1.06446 z m -74.92383,0.32813 c -1.23943,-0.006 -2.19776,0.30405 -3.13281,0.95898 -1.12993,0.79144 -2.56508,3.46768 -3.18945,5.94727 -0.76237,3.02764 -1.46604,4.17655 -2.14258,3.5 -0.55407,-0.55407 -1.78811,-2.72031 -2.74219,-4.81445 l -1.73633,-3.8086 -1.12109,2.81641 c -0.61756,1.5483 -1.12305,7.65784 -1.12305,13.57617 0,10.10799 0.14658,10.89835 2.4336,13.04688 1.33906,1.25799 3.92656,2.60239 5.75,2.98828 1.82343,0.38588 4.8914,0.36016 6.8164,-0.0586 1.925,-0.41881 4.67188,-2.07035 6.10547,-3.66992 2.07463,-2.31481 2.74995,-4.36749 3.31055,-10.05664 0.38737,-3.93124 0.40431,-9.151 0.0371,-11.59961 -0.36719,-2.4486 -1.19439,-5.17269 -1.83789,-6.05273 -0.64349,-0.88003 -2.82013,-1.9707 -4.83789,-2.42578 -1.00183,-0.22595 -1.8462,-0.34387 -2.58985,-0.34766 z" />
  </g>
</svg>
